<svg xmlns="http://www.w3.org/2000/svg" class="mt-svg">
<symbol id="account" viewBox="0 0 24 24">
  <path fill="currentColor" d="M10,0 C4.48,0 0,4.48 0,10 C0,15.52 4.48,20 10,20 C15.52,20 20,15.52 20,10 C20,4.48 15.52,0 10,0 Z M10,3 C11.66,3 13,4.34 13,6 C13,7.66 11.66,9 10,9 C8.34,9 7,7.66 7,6 C7,4.34 8.34,3 10,3 Z M10,17.2 C7.5,17.2 5.29,15.92 4,13.98 C4.03,11.99 8,10.9 10,10.9 C11.99,10.9 15.97,11.99 16,13.98 C14.71,15.92 12.5,17.2 10,17.2 Z" transform="translate(2 2)"/>

</symbol>
<symbol id="contact" viewBox="0 0 24 24">
  <path fill="currentColor" fill-rule="evenodd" d="M14,12.9749114 L14,17 L10,13 L3.8458278,13 C2.50854969,13 2.02362033,12.8607616 1.53473144,12.5993009 C1.04584256,12.3378403 0.662159695,11.9541574 0.400699056,11.4652686 C0.139238417,10.9763797 1.58427466e-12,10.4914503 1.13686838e-13,9.1541722 L4.34174302e-12,3.8458278 C4.34157926e-12,2.50854969 0.139238417,2.02362033 0.400699056,1.53473144 C0.662159695,1.04584256 1.04584256,0.662159695 1.53473144,0.400699056 C2.02362033,0.139238417 2.50854969,2.45654003e-16 3.8458278,0 L13.1541722,6.17908881e-16 C14.4914503,-8.15486681e-16 14.9763797,0.139238417 15.4652686,0.400699056 C15.9541574,0.662159695 16.3378403,1.04584256 16.5993009,1.53473144 C16.8607616,2.02362033 17,2.50854969 17,3.8458278 L17,9.1541722 C17,10.4914503 16.8607616,10.9763797 16.5993009,11.4652686 C16.3378403,11.9541574 15.9541574,12.3378403 15.4652686,12.5993009 C15.0967994,12.7963604 14.7305795,12.9239922 14,12.9749114 Z M5,4 C4.44771525,4 4,4.44771525 4,5 C4,5.55228475 4.44771525,6 5,6 L12,6 C12.5522847,6 13,5.55228475 13,5 C13,4.44771525 12.5522847,4 12,4 L5,4 Z M5,7 C4.44771525,7 4,7.44771525 4,8 C4,8.55228475 4.44771525,9 5,9 L9,9 C9.55228475,9 10,8.55228475 10,8 C10,7.44771525 9.55228475,7 9,7 L5,7 Z" transform="translate(3 4)"/>

</symbol>
<symbol id="dashboard" viewBox="0 0 24 24">
  <g fill="currentColor" fill-rule="evenodd" transform="translate(4 6)">
    <rect width="16" height="3" rx="1.5"/>
    <rect width="16" height="3" y="5" rx="1.5"/>
    <rect width="16" height="3" y="10" rx="1.5"/>
  </g>

</symbol>
<symbol id="doublecheck">
  <g fill="#66CB87" fill-rule="nonzero">
    <path d="M11.07 5.08l2.003 1.941h-1.67L17.904.72a1.2 1.2 0 0 1 1.67 1.724l-6.502 6.302a1.2 1.2 0 0 1-1.67 0l-2.03-1.967 1.697-1.697zM1.02 5.789l3.049 2.956a1.2 1.2 0 0 0 1.67 0l6.503-6.302a1.2 1.2 0 1 0-1.67-1.724L4.068 7.021h1.67L2.69 4.066a1.2 1.2 0 1 0-1.67 1.723z"/>
  </g>

</symbol>
<symbol id="error" viewBox="0 0 24 24">
  <path fill="currentColor" d="M12.73,0 L5.27,0 L0,5.27 L0,12.73 L5.27,18 L12.73,18 L18,12.73 L18,5.27 L12.73,0 Z M9,14.3 C8.28,14.3 7.7,13.72 7.7,13 C7.7,12.28 8.28,11.7 9,11.7 C9.72,11.7 10.3,12.28 10.3,13 C10.3,13.72 9.72,14.3 9,14.3 Z M10,10 L8,10 L8,4 L10,4 L10,10 Z" transform="translate(3 3)"/>

</symbol>
<symbol id="help" viewBox="0 0 24 24">
  <path fill="currentColor" d="M10,0 C4.48,0 0,4.48 0,10 C0,15.52 4.48,20 10,20 C15.52,20 20,15.52 20,10 C20,4.48 15.52,0 10,0 Z M11,17 L9,17 L9,15 L11,15 L11,17 Z M13.07,9.25 L12.17,10.17 C11.67,10.68 11.31,11.14 11.13,11.86 C11.05,12.18 11,12.54 11,13 L9,13 L9,12.5 C9,12.04 9.08,11.6 9.22,11.19 C9.42,10.61 9.75,10.09 10.17,9.67 L11.41,8.41 C11.87,7.97 12.09,7.31 11.96,6.61 C11.83,5.89 11.27,5.28 10.57,5.08 C9.46,4.77 8.43,5.4 8.1,6.35 C7.98,6.72 7.67,7 7.28,7 L6.98,7 C6.4,7 6,6.44 6.16,5.88 C6.59,4.41 7.84,3.29 9.39,3.05 C10.91,2.81 12.36,3.6 13.26,4.85 C14.44,6.48 14.09,8.23 13.07,9.25 Z" transform="translate(2 2)"/>

</symbol>
<symbol id="pricing" viewBox="0 0 24 24">
  <path fill="currentColor" fill-rule="evenodd" d="M6,0 L12,0 C12.5522847,-1.01453063e-16 13,0.44771525 13,1 L13,15 C13,15.5522847 12.5522847,16 12,16 L6,16 C5.44771525,16 5,15.5522847 5,15 L5,1 C5,0.44771525 5.44771525,1.01453063e-16 6,0 Z M15,1 L17,1 C17.5522847,1 18,1.44771525 18,2 L18,14 C18,14.5522847 17.5522847,15 17,15 L15,15 C14.4477153,15 14,14.5522847 14,14 L14,2 C14,1.44771525 14.4477153,1 15,1 Z M1,1 L3,1 C3.55228475,1 4,1.44771525 4,2 L4,14 C4,14.5522847 3.55228475,15 3,15 L1,15 C0.44771525,15 6.76353751e-17,14.5522847 0,14 L0,2 C-6.76353751e-17,1.44771525 0.44771525,1 1,1 Z" transform="translate(3 4)"/>

</symbol>
<symbol id="settings" viewBox="0 0 24 24">
  <path fill="currentColor" d="M15.8766355,9.882 C15.9136455,9.594 15.9414029,9.306 15.9414029,9 C15.9414029,8.694 15.9136455,8.406 15.8766355,8.118 L17.8289086,6.633 C18.0047057,6.498 18.0509681,6.255 17.9399384,6.057 L16.0894426,2.943 C15.9784128,2.745 15.7285959,2.673 15.5250413,2.745 L13.2211741,3.645 C12.7400452,3.285 12.2219063,2.988 11.6575051,2.763 L11.3059109,0.378 C11.2781535,0.162 11.0838514,0 10.8525394,0 L7.15154784,0 C6.92023586,0 6.7259338,0.162 6.69817637,0.378 L6.34658216,2.763 C5.78218094,2.988 5.26404212,3.294 4.78291321,3.645 L2.47904594,2.745 C2.26623892,2.664 2.02567447,2.745 1.91464472,2.943 L0.064148921,6.057 C-0.0561333061,6.255 -0.000618432059,6.498 0.175178669,6.633 L2.12745174,8.118 C2.09044182,8.406 2.06268439,8.703 2.06268439,9 C2.06268439,9.297 2.09044182,9.594 2.12745174,9.882 L0.175178669,11.367 C-0.000618432059,11.502 -0.0468808271,11.745 0.064148921,11.943 L1.91464472,15.057 C2.02567447,15.255 2.2754914,15.327 2.47904594,15.255 L4.78291321,14.355 C5.26404212,14.715 5.78218094,15.012 6.34658216,15.237 L6.69817637,17.622 C6.7259338,17.838 6.92023586,18 7.15154784,18 L10.8525394,18 C11.0838514,18 11.2781535,17.838 11.3059109,17.622 L11.6575051,15.237 C12.2219063,15.012 12.7400452,14.706 13.2211741,14.355 L15.5250413,15.255 C15.7378483,15.336 15.9784128,15.255 16.0894426,15.057 L17.9399384,11.943 C18.0509681,11.745 18.0047057,11.502 17.8289086,11.367 L15.8766355,9.882 Z M9.00204364,12.15 C7.21631519,12.15 5.76367599,10.737 5.76367599,9 C5.76367599,7.263 7.21631519,5.85 9.00204364,5.85 C10.7877721,5.85 12.2404113,7.263 12.2404113,9 C12.2404113,10.737 10.7877721,12.15 9.00204364,12.15 Z" transform="translate(3 3)"/>

</symbol>
<symbol id="spinner" viewBox="0 0 24 24">
  <path fill="currentColor" d="M9,19 C8.44771525,19 8,18.5522847 8,18 C8,17.4477153 8.44771525,17 9,17 C13.418278,17 17,13.418278 17,9 C17,8.44771525 17.4477153,8 18,8 C18.5522847,8 19,8.44771525 19,9 C19,14.5228475 14.5228475,19 9,19 Z M9,-1 C9.55228475,-1 10,-0.55228475 10,0 C10,0.55228475 9.55228475,1 9,1 C4.581722,1 1,4.581722 1,9 C1,9.55228475 0.55228475,10 0,10 C-0.55228475,10 -1,9.55228475 -1,9 C-1,3.4771525 3.4771525,-1 9,-1 Z" transform="translate(3 3)"/>

</symbol>
<symbol id="update-arrow" viewBox="0 0 24 24">
  <path fill="currentColor" fill-rule="evenodd" d="M3,5 L0,5 L5.00038717,0 L10.0007743,5 L7,5 L7,11 L3,11 L3,5 Z" transform="translate(7 6)"/>

</symbol>
<symbol id="update" viewBox="0 0 24 24">
  <path fill="currentColor" fill-rule="evenodd" d="M10,20 C4.4771525,20 0,15.5228475 0,10 C0,4.4771525 4.4771525,0 10,0 C15.5228475,0 20,4.4771525 20,10 C20,15.5228475 15.5228475,20 10,20 Z M8,9 L8,15 L12,15 L12,9 L8,9 Z M10.0003872,4 L5,9 L15.0007743,9 L10.0003872,4 Z" transform="translate(2 2)"/>

</symbol>
<symbol id="upgrade" viewBox="0 0 24 24">
  <path fill="currentColor" d="M9.99,0 C4.47,0 0,4.48 0,10 C0,15.52 4.47,20 9.99,20 C15.52,20 20,15.52 20,10 C20,4.48 15.52,0 9.99,0 Z M13.22,15.39 L10,13.45 L6.78,15.39 C6.4,15.62 5.93,15.28 6.03,14.85 L6.88,11.19 L4.05,8.74 C3.72,8.45 3.9,7.9 4.34,7.86 L8.08,7.54 L9.54,4.09 C9.71,3.68 10.29,3.68 10.46,4.09 L11.92,7.53 L15.66,7.85 C16.1,7.89 16.28,8.44 15.94,8.73 L13.11,11.18 L13.96,14.85 C14.06,15.28 13.6,15.62 13.22,15.39 Z" transform="translate(2 2)"/>

</symbol></svg>
